<svg width="300" height="225" viewBox="0 0 300 225" fill="none" xmlns="http://www.w3.org/2000/svg">
<path fill-rule="evenodd" clip-rule="evenodd" d="M145.844 115.968C141.916 116.421 138.902 116.366 136.802 115.805C134.702 115.244 133.045 114.05 131.833 112.224C130.511 109.431 129.778 107.83 129.634 107.422C128.925 105.421 128.846 103.455 128.982 102.132C129.159 100.404 130.109 98.152 131.833 95.3764C132.078 93.4469 132.486 91.7377 133.055 90.2491C133.624 88.7604 134.764 86.6172 136.476 83.8194L136.72 74.6225C137.443 72.5173 138.121 71.0251 138.757 70.1461C139.392 69.2671 140.126 68.8057 140.956 68.7624C141.657 68.6959 142.309 68.8587 142.911 69.2508C143.514 69.6429 144.654 70.6467 146.333 72.2622C147.719 69.8452 149.294 68.0003 151.057 66.7278C152.821 65.4552 155.156 64.4786 158.063 63.7978L158.47 62.984L158.519 58.1966L157.167 46.5434H155.375L158.144 42.474C158.391 41.5772 158.636 40.9263 158.877 40.5206C159.119 40.1152 159.57 39.6538 160.231 39.1371C160.243 38.9872 160.787 38.9058 161.862 38.8928C162.936 38.8797 164.63 38.934 166.942 39.0557C167.928 39.2821 168.608 39.5805 168.978 39.951C169.348 40.3212 169.675 41.1081 169.955 42.3112L173.927 46.5491L171.422 46.7062L171.178 54.4381C170.829 55.7642 170.503 56.6593 170.2 57.1239C169.896 57.5885 169.409 57.9412 168.734 58.1819L164.742 58.4261L164.253 63.1467L164.579 63.7978C166.617 64.38 168.003 64.8412 168.734 65.1813C170.49 65.9983 172.078 67.1813 173.296 69.2508C174.148 70.6996 175.031 72.701 176.227 74.7852C177.282 76.6203 179.209 79.8487 182.012 84.4705L184.781 86.9121L186.166 89.6793L189.506 92.2023L191.053 87.1563C187.904 82.3815 186.329 79.343 186.329 78.0408C186.329 77.4965 186.659 76.9834 186.98 76.6571C187.43 76.2028 188.046 75.9235 189.098 76.006C189.799 76.061 190.479 76.495 191.134 77.3082L200.503 102.457C199.57 105.51 198.757 107.789 198.059 109.294C197.363 110.799 196.331 112.291 194.964 113.77C192.995 114.874 191.338 115.525 189.995 115.724C188.651 115.922 186.452 115.732 183.396 115.154C182.327 114.665 181.621 114.203 181.278 113.77C180.012 112.165 179.48 110.128 178.834 109.05C177.928 107.535 177.385 106.124 177.206 104.818L172.97 91.063L154.641 90.4931L152.931 104.411C151.996 108.193 150.991 110.96 149.917 112.712C148.842 114.464 147.485 115.549 145.844 115.968Z" fill="white"/>
<path fill-rule="evenodd" clip-rule="evenodd" d="M147.106 118.966C146.774 118.906 146.53 118.877 146.372 118.877C145.768 118.88 145.275 118.849 144.986 118.389C144.585 117.749 144.693 116.988 145.312 116.108L147.024 115.538H147.84L153.791 115.782L155.666 115.538L162.269 115.294C162.975 115.619 163.22 116.244 163.003 117.167C162.785 118.09 162.187 118.66 161.209 118.877L159.253 118.966L146.046 179.469H137.568C139.019 169.965 140.188 162.816 141.073 158.024C141.959 153.232 143.97 140.213 147.106 118.966ZM167.812 118.966C167.799 118.774 167.283 118.744 166.264 118.877C165.395 118.443 165.041 117.764 165.204 116.841C165.367 115.918 165.774 115.429 166.427 115.375L167.649 115.538H171.399L175.149 115.782L179.307 115.375C180.611 115.484 181.264 116.081 181.264 117.167C181.264 117.784 181.055 118.105 180.774 118.389C180.633 118.532 180.36 118.695 179.959 118.877L178.655 118.966L181.997 179.55H173.193C172.008 168.655 171.246 161.018 170.91 156.638C170.511 151.421 168.249 125.489 167.812 118.966Z" fill="white"/>
<path fill-rule="evenodd" clip-rule="evenodd" d="M147.106 118.884H159.253L146.046 179.387H137.568C139.019 169.884 140.188 162.734 141.073 157.943C141.959 153.151 143.97 140.131 147.106 118.884ZM167.812 118.884H178.655L181.997 179.469H173.193C172.008 168.574 171.246 160.937 170.91 156.556C170.511 151.339 168.249 125.408 167.812 118.884Z" stroke="#263E4B" stroke-width="1.5"/>
<path fill-rule="evenodd" clip-rule="evenodd" d="M154.688 64.9044L145.496 64.9476C140.911 64.9691 137.141 68.5656 136.907 73.1412L136.753 76.1571C136.897 74.6063 137.087 73.5191 137.324 72.8954C137.7 71.9056 138.134 71.3361 138.628 70.6939C139.375 69.7227 140.221 68.9033 140.911 68.7368C142.487 68.3563 144.253 69.5795 146.209 72.4062C146.537 71.773 146.809 71.2838 147.025 70.9384C147.455 70.2492 147.914 69.5049 148.737 68.7368C150.367 67.2148 152.351 65.9373 154.688 64.9044Z" fill="#24A9E2"/>
<path fill-rule="evenodd" clip-rule="evenodd" d="M147.188 115.378C148.026 115.684 149.602 115.82 151.916 115.786C153.176 115.767 155.443 115.392 157.378 115.297C158.456 115.244 160.087 115.244 162.269 115.297L164.144 110.323H165.937L166.508 115.297C168.416 115.416 169.774 115.497 170.584 115.541C172.326 115.636 173.773 115.704 174.905 115.704C176.826 115.704 178.237 115.568 179.144 115.297L174.986 92.0575L155.666 92.7914C155.413 96.3302 154.489 100.217 152.894 104.452C152.554 105.354 152.5 106.495 152.16 107.632C151.643 109.364 151.074 111.039 150.448 112.198C149.855 113.297 148.768 114.357 147.188 115.378Z" fill="#24A9E2"/>
<path d="M179.015 115.351L177.148 104.472C177.137 104.406 177.182 104.343 177.248 104.331C177.315 104.32 177.378 104.365 177.39 104.431L179.247 115.256H179.511C180.546 115.256 181.386 116.096 181.386 117.131C181.386 118.167 180.546 119.007 179.511 119.007H166.647C165.729 119.007 164.985 118.262 164.985 117.344C164.985 117.267 164.99 117.191 165.001 117.114L165.099 116.414C165.187 115.784 165.675 115.291 166.293 115.19L165.826 110.445H164.229L162.436 115.199C162.936 115.314 163.291 115.781 163.25 116.308C163.247 116.354 163.241 116.399 163.231 116.444L163.081 117.156C162.856 118.234 161.905 119.007 160.804 119.007H145.891C145.204 119.007 144.646 118.449 144.646 117.762C144.646 117.632 144.667 117.503 144.707 117.379C144.816 117.043 144.951 116.609 145.114 116.076C145.134 116.012 145.202 115.975 145.267 115.995C145.331 116.015 145.367 116.083 145.348 116.148C145.185 116.681 145.049 117.117 144.94 117.454C144.907 117.554 144.891 117.658 144.891 117.762C144.891 118.314 145.339 118.762 145.891 118.762H160.804C161.79 118.762 162.64 118.071 162.842 117.106L162.991 116.394C162.998 116.359 163.003 116.325 163.006 116.29C163.04 115.844 162.708 115.455 162.263 115.419C161.251 115.399 160.536 115.389 160.116 115.388C158.981 115.387 155.781 115.573 155.111 115.663C153.591 115.866 152.786 115.895 151.471 115.851C151.429 115.85 151.429 115.85 151.386 115.848C150.916 115.832 150.691 115.827 150.392 115.827C149.304 115.827 148.492 115.799 147.953 115.744C147.32 115.68 147.034 115.59 147.066 115.361L147.308 115.395C147.311 115.378 147.306 115.364 147.303 115.358C147.32 115.372 147.355 115.388 147.407 115.404C147.527 115.442 147.718 115.475 147.978 115.501C148.507 115.555 149.312 115.582 150.392 115.582C150.695 115.582 150.922 115.588 151.394 115.604C151.437 115.605 151.437 115.605 151.48 115.607C152.782 115.65 153.573 115.622 155.079 115.42C155.76 115.329 158.971 115.143 160.117 115.144C160.526 115.144 161.216 115.154 162.185 115.173L164.03 110.279C164.048 110.232 164.093 110.2 164.144 110.2H165.937H166.997C167.064 110.2 167.119 110.255 167.119 110.323C167.119 110.39 167.064 110.445 166.997 110.445H166.073L166.541 115.203C167.08 115.292 168.16 115.337 169.769 115.337C170.374 115.337 173.331 115.503 174.182 115.583C175.153 115.674 176.765 115.597 179.015 115.351ZM179.149 115.5L179.157 115.581C176.83 115.839 175.166 115.921 174.16 115.826C173.317 115.747 170.366 115.582 169.769 115.582C168.047 115.582 166.929 115.531 166.402 115.427L166.404 115.421C165.857 115.478 165.417 115.901 165.341 116.448L165.243 117.148C165.235 117.213 165.23 117.279 165.23 117.344C165.23 118.127 165.864 118.762 166.647 118.762H179.511C180.411 118.762 181.141 118.032 181.141 117.131C181.141 116.231 180.411 115.5 179.511 115.5H179.149Z" fill="#263E4B"/>
<path d="M164.912 58.4219L164.437 63.4334C168.301 64.7472 170.773 65.888 171.859 66.8657C173.269 68.1338 176.882 75.4622 178.733 80.2717C179.292 81.7241 180.16 82.6442 182.263 84.347L182.439 84.4902C184.552 86.2004 185.415 87.1237 185.944 88.5913C186.76 90.8571 188.393 91.4015 190.912 90.2341C190.974 90.2058 191.048 90.2325 191.075 90.2937C191.103 90.355 191.077 90.4278 191.015 90.4562C188.372 91.6807 186.582 91.0835 185.713 88.6742C185.206 87.2628 184.365 86.3629 182.286 84.6803L182.108 84.5371C179.972 82.8081 179.085 81.8654 178.505 80.3595C176.671 75.5922 173.064 68.2786 171.696 67.0477C170.633 66.0916 168.153 64.9503 164.268 63.6341C164.214 63.6158 164.18 63.5631 164.185 63.5067L164.667 58.4219H163.247C163.18 58.4219 163.125 58.3671 163.125 58.2995C163.125 58.2321 163.18 58.1772 163.247 58.1772H164.799C164.801 58.1772 164.801 58.1772 164.803 58.1772H167.517C169.2 58.1772 170.176 57.493 170.687 56.11C171.096 54.9987 171.196 53.7142 171.196 50.9683V49.0982C171.196 49.0723 171.196 49.0513 171.196 49.0037C171.197 48.0946 171.155 47.5707 170.959 46.772C170.956 46.7673 170.949 46.7614 170.943 46.7545C170.923 46.7355 170.897 46.7106 170.863 46.6799H159.205C159.137 46.6799 159.083 46.6252 159.083 46.5578C159.083 46.4902 159.137 46.4354 159.205 46.4354H170.91C170.94 46.4354 170.969 46.4463 170.992 46.466C171.135 46.5939 171.179 46.6369 171.192 46.6915C171.398 47.5257 171.442 48.0685 171.44 49.0041C171.44 49.0516 171.44 49.0725 171.44 49.0982V50.9683C171.44 53.7451 171.339 55.0458 170.915 56.1947C170.371 57.6735 169.303 58.4219 167.517 58.4219H164.912ZM200.63 102.297L200.865 102.366C198.817 109.324 196.64 113.381 194.312 114.542C190.645 116.37 186.163 116.51 182.514 114.72C182.031 114.483 181.653 114.153 181.268 113.645C180.994 113.283 180.725 112.848 180.293 112.091C180.181 111.894 179.75 111.132 179.687 111.02C179.416 110.544 179.183 110.139 178.935 109.716C178.594 109.138 178.11 107.86 177.479 105.875L177.711 105.801C178.337 107.768 178.818 109.035 179.146 109.592C179.395 110.016 179.63 110.422 179.9 110.9C179.964 111.012 180.393 111.773 180.505 111.97C180.932 112.718 181.198 113.146 181.464 113.498C181.826 113.977 182.176 114.282 182.622 114.5C186.2 116.256 190.603 116.118 194.203 114.323C196.449 113.203 198.6 109.192 200.63 102.297Z" fill="#263E4B"/>
<path fill-rule="evenodd" clip-rule="evenodd" d="M167.079 64.5783L168.546 65.1491C169.578 68.302 170.367 70.9928 170.91 73.2217C171.453 75.4503 171.807 78.7663 171.97 83.1696L169.932 82.5988C170.095 79.0654 169.797 75.9397 169.035 73.2217C168.704 72.0377 168.052 69.1566 167.079 64.5783ZM154.606 64.9044L155.992 64.3336C156.318 66.7436 156.481 68.6462 156.481 70.0415C156.481 71.4367 156.481 72.8501 156.481 74.2817L154.361 77.2986C154.687 76.3202 154.85 74.1186 154.85 70.6938C154.85 67.2691 154.769 65.3393 154.606 64.9044Z" fill="#24A9E2"/>
<path d="M167.041 64.6037L166.994 64.3823L168.726 65.056L168.744 65.1109C169.777 68.2667 170.566 70.9604 171.111 73.1927C171.657 75.4311 172.011 78.7543 172.174 83.1652L172.181 83.3326L169.887 82.6903L169.891 82.5932C170.054 79.0721 169.756 75.9592 169 73.2546C168.667 72.0673 168.015 69.1849 167.041 64.6037ZM169.234 73.1886C169.992 75.895 170.294 79.0012 170.141 82.5072L171.923 83.0067C171.758 78.6943 171.408 75.4415 170.873 73.2506C170.333 71.0381 169.552 68.3685 168.53 65.2421L167.327 64.7744C168.274 69.2214 168.91 72.0274 169.234 73.1886ZM154.573 64.9474L154.532 64.8365L156.173 64.1602L156.195 64.3173C156.522 66.7321 156.685 68.6399 156.685 70.0415V74.3203L154.063 78.0525L154.327 77.26C154.647 76.2985 154.81 74.1049 154.81 70.6939C154.81 67.2961 154.728 65.3608 154.573 64.9474ZM155.054 70.6939C155.054 73.5214 154.944 75.5179 154.72 76.6918L156.44 74.243V70.0415C156.44 68.683 156.285 66.8379 155.973 64.5072L154.836 64.9756C154.984 65.5879 155.054 67.4781 155.054 70.6939Z" fill="#24A9E2"/>
<path d="M164.761 64.9391L164.995 64.8697L176.085 102.309C176.718 105.618 179.002 107.265 182.976 107.265C186.951 107.265 190.218 104.611 192.783 99.2804L193.003 99.3864C190.402 104.794 187.058 107.51 182.976 107.51C178.891 107.51 176.501 105.786 175.847 102.366L164.761 64.9391ZM170.79 95.2189L171.031 95.2562C169.772 103.41 167.408 107.51 163.9 107.51C161.062 107.51 159.173 98.6778 158.397 81.789C158.251 78.6046 158.169 73.1671 158.152 65.4755L158.397 65.4749C158.414 73.1632 158.495 78.5977 158.641 81.7777C159.407 98.4466 161.293 107.265 163.9 107.265C167.239 107.265 169.547 103.264 170.79 95.2189Z" fill="#263E4B"/>
<path fill-rule="evenodd" clip-rule="evenodd" d="M182.972 91.2079L191.514 90.311L192.019 95.1138L183.478 96.0109L182.972 91.2079ZM175.05 82.5979L174.246 74.9667C174.569 74.1416 175.417 73.6568 176.793 73.5123C178.167 73.3679 179.098 73.6659 179.586 74.4061L180.388 82.0372L175.05 82.5979ZM197.472 80.2432L192.134 80.8039L191.33 73.1726C191.653 72.3475 192.5 71.8627 193.877 71.7184C195.251 71.5739 196.182 71.8719 196.669 72.6121L197.472 80.2432Z" fill="#263E4B"/>
<path fill-rule="evenodd" clip-rule="evenodd" d="M174.378 91.0716L173.138 79.2779C173.658 78.0002 175.018 77.246 177.219 77.015C179.418 76.7838 180.905 77.2391 181.68 78.3809L182.92 90.1745L174.378 91.0716ZM200.004 88.3805L191.462 89.2776L190.221 77.4838C190.741 76.2063 192.101 75.4519 194.302 75.2209C196.502 74.9898 197.989 75.4451 198.763 76.5869L200.004 88.3805Z" fill="white"/>
<path fill-rule="evenodd" clip-rule="evenodd" d="M174.324 91.1045L173.083 79.3108C173.604 78.0333 174.963 77.2789 177.164 77.0479C179.364 76.8169 180.851 77.2721 181.625 78.4138L182.866 90.2076L174.324 91.1045ZM199.95 88.4135L191.408 89.3105L190.167 77.5167C190.687 76.2393 192.047 75.4849 194.248 75.2539C196.448 75.0229 197.935 75.4782 198.709 76.6198L199.95 88.4135Z" fill="white" stroke="#263E4B" stroke-width="1.5" stroke-linecap="round" stroke-linejoin="round"/>
<path fill-rule="evenodd" clip-rule="evenodd" d="M174.116 104.143L172.679 90.4993C173.423 89.0065 175.306 88.1012 178.332 87.7836C181.356 87.4659 183.388 87.96 184.425 89.2658L185.86 102.91L174.116 104.143ZM202.943 101.116L191.199 102.349L189.763 88.7053C190.506 87.2124 192.39 86.3072 195.416 85.9895C198.44 85.6719 200.472 86.166 201.509 87.4719L202.943 101.116Z" fill="white"/>
<path d="M174.09 104.269C174.023 104.276 173.962 104.227 173.956 104.16L172.521 90.5161C172.518 90.493 172.523 90.4697 172.532 90.4488C173.297 88.9106 175.218 87.9876 178.281 87.666C181.343 87.3444 183.414 87.8481 184.484 89.1938C184.498 89.2121 184.506 89.2341 184.51 89.2572L185.944 102.901C185.951 102.968 185.902 103.028 185.835 103.035L174.09 104.269ZM185.688 102.805L184.27 89.3185C183.257 88.0729 181.273 87.5977 178.306 87.9092C175.34 88.2208 173.498 89.0977 172.767 90.5264L174.186 104.013L185.688 102.805ZM203.028 101.107C203.035 101.174 202.986 101.234 202.919 101.241L191.173 102.475C191.106 102.482 191.046 102.433 191.039 102.366L189.605 88.7221C189.601 88.6989 189.606 88.6757 189.616 88.6548C190.382 87.1165 192.303 86.1935 195.365 85.872C198.427 85.5504 200.498 86.0541 201.567 87.3998C201.582 87.4181 201.59 87.4401 201.593 87.4632L203.028 101.107ZM202.772 101.011L201.354 87.5244C200.341 86.2789 198.357 85.8037 195.391 86.1152C192.424 86.4268 190.583 87.3037 189.851 88.7323L191.269 102.219L202.772 101.011Z" fill="#263E4B"/>
<path fill-rule="evenodd" clip-rule="evenodd" d="M180.16 105.532C176.917 105.872 174.194 105.252 174.077 104.147C173.961 103.042 176.496 101.87 179.739 101.529C182.982 101.189 185.706 101.808 185.822 102.914C185.94 104.019 183.404 105.191 180.16 105.532ZM197.245 103.738C194 104.078 191.278 103.458 191.162 102.353C191.044 101.248 193.58 100.076 196.823 99.735C200.067 99.3946 202.79 100.014 202.906 101.12C203.023 102.225 200.488 103.397 197.245 103.738Z" fill="#263E4B"/>
<path d="M171.191 93.3776C172.217 93.2698 172.96 92.3517 172.852 91.3265C172.745 90.3016 171.825 89.5579 170.8 89.6656C169.774 89.7733 169.031 90.6914 169.138 91.7165C169.246 92.7415 170.165 93.4853 171.191 93.3776ZM171.165 93.1342C170.273 93.2279 169.476 92.5817 169.381 91.6909C169.288 90.8004 169.934 90.0023 170.826 89.9088C171.716 89.8153 172.515 90.4614 172.609 91.3521C172.702 92.2427 172.057 93.0407 171.165 93.1342Z" fill="#263E4B"/>
<path d="M132.047 95.3958L133.695 94.7965C133.758 94.7735 133.828 94.8063 133.852 94.8697C133.875 94.9332 133.842 95.0034 133.778 95.0265L132.314 95.5592L133.799 96.4371C133.857 96.4713 133.876 96.5464 133.842 96.6046C133.808 96.6627 133.733 96.6819 133.674 96.6476L132.016 95.6674L131.985 95.6788C131.971 95.684 131.956 95.6864 131.941 95.6861C128.947 99.6741 128.255 103.609 129.855 107.504C131.415 111.301 132.117 112.657 133.299 113.827C134.661 115.175 136.538 115.876 139.783 116.235C145.901 116.913 149.475 114.884 151.067 110.364C152.061 107.539 152.63 105.561 152.773 104.436C152.781 104.369 152.843 104.322 152.91 104.33C152.977 104.339 153.024 104.4 153.016 104.467C152.87 105.614 152.297 107.605 151.298 110.445C149.667 115.077 145.983 117.168 139.756 116.478C136.461 116.114 134.535 115.394 133.127 114C131.912 112.798 131.203 111.427 129.629 107.597C127.985 103.595 128.71 99.5492 131.796 95.473C132.128 91.3342 133.63 87.4606 136.3 83.8539C138.963 80.2585 141.706 77.5553 144.532 75.7455C146.442 70.6838 149.215 67.294 152.853 65.5835C154.665 64.7314 156.025 64.1648 156.936 63.8835C157.546 63.6952 157.98 63.6258 158.223 63.7023L158.642 56.0098C158.645 55.9424 158.703 55.8907 158.77 55.894C158.838 55.898 158.89 55.9557 158.886 56.0232L158.45 64.0255C158.441 64.1839 158.205 64.1775 158.205 64.0189C158.205 63.8691 157.828 63.8639 157.008 64.1172C156.111 64.3945 154.76 64.9572 152.957 65.8049C149.373 67.49 146.636 70.8423 144.746 75.8696C144.737 75.8945 144.72 75.9156 144.698 75.9297C141.887 77.7223 139.153 80.412 136.497 83.9996C133.874 87.5418 132.391 91.3399 132.047 95.3958Z" fill="#263E4B"/>
<path fill-rule="evenodd" clip-rule="evenodd" d="M158.356 63.0291L157.21 65.9267C157.144 66.094 157.226 66.2833 157.394 66.3495C157.46 66.3754 157.533 66.3793 157.601 66.3604L162.493 65.0044L165.73 66.1564C165.9 66.2169 166.086 66.1284 166.146 65.9588C166.183 65.8575 166.167 65.7448 166.104 65.6578L164.307 63.1921C163.974 63.4819 163.26 63.6269 162.166 63.6269C161.071 63.6269 159.801 63.4277 158.356 63.0291Z" fill="white"/>
<path d="M162.417 65.0935L157.715 66.3966C157.621 66.4226 157.521 66.4174 157.431 66.3816C157.2 66.2905 157.087 66.0299 157.178 65.7995L158.324 62.9025C158.347 62.8443 158.41 62.8129 158.47 62.8295C159.906 63.2255 161.165 63.4231 162.247 63.4231C163.314 63.4231 164.004 63.2829 164.309 63.0183C164.362 62.9712 164.445 62.9805 164.488 63.0385L166.283 65.5034C166.369 65.6231 166.392 65.7783 166.343 65.9178C166.26 66.1512 166.004 66.2731 165.769 66.19L162.662 65.0837C162.667 65.1302 162.674 65.1846 162.681 65.2471C162.711 65.5125 162.757 65.9236 162.818 66.4811C162.941 67.5957 163.125 69.2946 163.369 71.5778C163.376 71.6449 163.327 71.7052 163.26 71.7124C163.193 71.7195 163.133 71.671 163.125 71.6039C162.881 69.3208 162.697 67.6221 162.575 66.5078C162.514 65.9509 162.468 65.5399 162.438 65.2751C162.43 65.204 162.422 65.1434 162.417 65.0935ZM162.413 63.6667C162.44 63.7714 162.466 63.8882 162.49 64.0157C162.531 64.2234 162.562 64.4233 162.599 64.6871L162.614 64.7988C162.615 64.8019 162.615 64.8048 162.616 64.8078L165.853 65.9595C165.959 65.9973 166.074 65.9419 166.112 65.8358C166.135 65.7725 166.125 65.7019 166.086 65.6475L164.362 63.2832C163.994 63.5292 163.347 63.6536 162.413 63.6667ZM162.375 64.8511C162.374 64.8454 162.373 64.8394 162.372 64.833L162.357 64.7211C162.32 64.4611 162.289 64.2647 162.25 64.0619C162.222 63.9136 162.192 63.7813 162.161 63.6673C161.101 63.6574 159.885 63.4663 158.511 63.0944L157.406 65.8894C157.365 65.9942 157.416 66.1126 157.521 66.154C157.562 66.1703 157.607 66.1727 157.65 66.1608L162.375 64.8511Z" fill="#263E4B"/>
<path fill-rule="evenodd" clip-rule="evenodd" d="M145.72 91.0217C152.485 80.2362 156.371 74.2836 157.378 73.1641C158.164 72.2905 159.509 72.2187 160.384 73.0037C161.038 73.5913 161.263 74.5205 160.951 75.342L158.519 81.7261" fill="white"/>
<path d="M145.795 91.1441C152.552 80.3709 156.441 74.4146 157.44 73.3034C158.181 72.4795 159.449 72.4124 160.273 73.1536C160.89 73.7081 161.101 74.5848 160.806 75.3597L158.376 81.7399L158.605 81.8269L161.035 75.4467C161.366 74.5773 161.128 73.5939 160.437 72.9718C159.513 72.1402 158.09 72.2154 157.258 73.1399C156.244 74.2675 152.361 80.2162 145.588 91.0141L145.795 91.1441Z" fill="#263E4B"/>
<path fill-rule="evenodd" clip-rule="evenodd" d="M160.831 51.3733C160.641 51.3173 160.439 51.2871 160.231 51.2871C159.06 51.2871 158.111 52.2363 158.111 53.4071C158.111 54.402 158.796 55.2368 159.72 55.4654L159.625 57.438C159.599 57.9641 159.161 58.3753 158.634 58.368L156.118 58.3326C155.957 58.3303 155.796 58.3064 155.641 58.2613C154.691 57.9845 154.144 56.9898 154.421 56.0396L157.186 46.5578H157.513L157.515 46.556L157.898 46.5578H159.334L159.334 46.5646L162.745 46.5811C162.351 48.3906 161.997 49.5998 161.684 50.2085C161.46 50.6433 161.176 51.0317 160.831 51.3733ZM172.418 46.5578C172.738 47.9167 172.242 48.5963 170.928 48.5963C169.612 48.5963 167.641 47.9167 165.013 46.5578H172.418Z" fill="#263E4B"/>
<path fill-rule="evenodd" clip-rule="evenodd" d="M142.245 93.8681L153.315 84.0135C154.926 82.5789 157.016 81.7987 159.174 81.8266L171.779 81.9887C173.501 82.0108 174.908 83.3675 174.991 85.0858C175.071 86.7122 173.816 88.0947 172.187 88.1737C172.151 88.1755 172.114 88.1767 172.076 88.1771L161.405 88.2938C160.752 88.3008 160.229 88.8354 160.236 89.4877C160.236 89.4882 160.236 89.4885 160.236 89.489C160.244 90.1494 160.772 90.6857 161.433 90.7037L172.448 91.0053C173.949 91.0465 175.146 92.2697 175.154 93.7699C175.163 95.2482 173.969 96.4529 172.49 96.4607C172.485 96.4607 172.48 96.4607 172.476 96.4607H161.976C161.33 96.4607 160.807 96.9838 160.807 97.629C160.807 97.6337 160.807 97.6385 160.807 97.643C160.815 98.3526 161.268 98.9805 161.939 99.2132L168.662 101.545C169.826 101.949 170.441 103.218 170.036 104.381C170.018 104.432 169.999 104.483 169.978 104.533C169.44 105.778 168.038 106.405 166.749 105.976L155.82 102.332L149.906 106.275C146.874 108.297 142.775 107.48 140.751 104.45C140.56 104.165 140.393 103.866 140.249 103.555C139.734 102.441 139.573 100.845 139.767 98.7677C139.943 96.88 140.828 95.1293 142.245 93.8681Z" fill="white"/>
<path d="M141.805 105.449L143.866 104.124C143.159 103.448 142.588 102.618 142.105 101.653C141.406 100.254 141.636 97.5782 142.782 93.6096L142.391 93.9573C140.995 95.1999 140.123 96.926 139.95 98.787C139.759 100.841 139.918 102.414 140.422 103.503C140.563 103.807 140.726 104.1 140.912 104.378C141.176 104.774 141.476 105.132 141.805 105.449ZM141.99 105.621C144.138 107.54 147.389 107.848 149.897 106.175L150.468 105.795C148.201 106.204 146.357 105.87 144.879 104.922C144.585 104.733 144.31 104.523 144.052 104.295L141.99 105.621ZM142.912 93.1662C142.912 93.1655 142.912 93.1649 142.913 93.1641C142.926 93.1175 142.966 93.0854 143.011 93.0782L153.296 83.9214C154.93 82.467 157.049 81.6761 159.235 81.7043L171.846 81.8664C173.63 81.8893 175.089 83.297 175.175 85.0799C175.259 86.7736 173.953 88.2135 172.259 88.2959C172.221 88.2979 172.182 88.299 172.143 88.2994L161.467 88.4162C160.883 88.4225 160.414 88.9016 160.42 89.4864V89.4876C160.428 90.0823 160.903 90.5651 161.497 90.5814L172.516 90.8831C174.081 90.926 175.33 92.2031 175.338 93.7693C175.347 95.3152 174.101 96.5749 172.555 96.5831H172.541H162.037C161.459 96.5831 160.991 97.0514 160.991 97.629C160.991 97.6354 160.991 97.6354 160.991 97.6416C160.999 98.2996 161.419 98.8818 162.04 99.0973L168.766 101.43C169.992 101.855 170.641 103.194 170.216 104.419C170.196 104.474 170.175 104.528 170.152 104.582C169.588 105.886 168.122 106.542 166.775 106.092L155.9 102.467L150.033 106.379C146.943 108.439 142.768 107.604 140.708 104.514C140.516 104.225 140.346 103.921 140.2 103.606C139.675 102.471 139.512 100.858 139.707 98.7643C139.885 96.8416 140.787 95.0583 142.229 93.7745L142.912 93.1662ZM143.127 93.3027C141.903 97.4217 141.64 100.175 142.324 101.543C143 102.895 143.851 103.971 145.012 104.716C146.522 105.685 148.434 105.99 150.83 105.474C150.863 105.467 150.897 105.474 150.923 105.491L155.864 102.197L166.852 105.86C168.078 106.27 169.415 105.672 169.927 104.485C169.948 104.437 169.968 104.388 169.984 104.339C170.366 103.241 169.784 102.042 168.686 101.661L161.96 99.3284C161.241 99.079 160.756 98.4056 160.746 97.6445C160.746 97.6369 160.746 97.6369 160.746 97.629C160.746 96.9164 161.324 96.3385 162.037 96.3385H172.541L172.554 96.3384C173.964 96.3311 175.102 95.1813 175.094 93.7706C175.087 92.3365 173.943 91.1669 172.51 91.1277L161.491 90.826C160.765 90.8061 160.185 90.2165 160.176 89.4905V89.489C160.168 88.7693 160.745 88.1793 161.465 88.1715L172.141 88.0548C172.175 88.0543 172.211 88.0534 172.247 88.0516C173.806 87.9757 175.007 86.6506 174.931 85.0918C174.851 83.438 173.498 82.1322 171.843 82.111L159.232 81.9488C157.106 81.9214 155.047 82.6903 153.459 84.1042L143.127 93.3027Z" fill="#263E4B"/>
<path fill-rule="evenodd" clip-rule="evenodd" d="M197.418 84.8357L197.42 85.1672C197.428 86.8583 198.801 88.2251 200.495 88.2251H202.813C200.897 88.3723 199.647 88.9976 199.063 90.1006C198.145 91.8377 198.81 93.9898 200.55 94.9075C201.062 95.1779 201.633 95.3191 202.211 95.3191H203.221L202.945 95.4543C201.007 96.4055 200.204 98.7475 201.157 100.686C201.214 100.803 201.277 100.916 201.346 101.027C202.273 102.317 204.072 102.612 205.361 101.686C205.448 101.624 205.531 101.557 205.609 101.486L207.409 99.8662C208.404 98.9715 208.87 97.6317 208.648 96.3136C208.634 96.2177 208.617 96.1308 208.601 96.053C208.508 95.5776 208.182 94.871 207.623 93.933C208.004 93.1719 208.112 92.2478 207.949 91.1606C207.786 90.0733 207.325 89.122 206.563 88.3067C206.935 87.3575 206.989 86.2975 206.726 85.1265C206.623 84.6629 206.48 84.2677 206.296 83.9411C205.96 83.3419 205.353 82.9433 204.669 82.8716L200.118 82.3942C198.775 82.2533 197.571 83.2271 197.431 84.5692C197.421 84.6577 197.418 84.7468 197.418 84.8357Z" fill="white"/>
<path d="M203.255 95.1153L207.59 93.7505C207.939 93.0224 208.038 92.1388 207.882 91.0972C207.722 90.0375 207.274 89.1111 206.534 88.3151V88.3474L202.775 88.2738C200.954 88.4318 199.775 89.0348 199.224 90.0761C198.339 91.7529 198.978 93.8307 200.656 94.717C201.15 94.9786 201.701 95.1153 202.26 95.1153H203.255ZM203.32 95.3515L203.049 95.4838C201.174 96.4037 200.398 98.6706 201.318 100.547C201.375 100.661 201.435 100.773 201.499 100.874C202.387 102.11 204.109 102.392 205.345 101.504C205.426 101.445 205.505 101.382 205.58 101.314L207.378 99.6958C208.343 98.8275 208.797 97.5263 208.58 96.2465C208.565 96.154 208.549 96.0702 208.534 95.9951C208.448 95.5508 208.143 94.8827 207.621 93.9972L203.32 95.3515ZM202.867 88.0309L206.532 88.1027C206.866 87.1972 206.91 86.1877 206.661 85.0718C206.56 84.6196 206.419 84.2359 206.243 83.9206C205.925 83.3554 205.355 82.9793 204.709 82.9117L200.159 82.4342C198.882 82.3003 197.739 83.2266 197.605 84.5031C197.597 84.5873 197.592 84.6717 197.592 84.7564L197.594 85.0851C197.602 86.7089 198.919 88.0213 200.543 88.0213H202.867V88.0309ZM199.009 89.9618C199.444 89.1384 200.232 88.574 201.367 88.266H200.543C198.786 88.266 197.357 86.8448 197.349 85.0863L197.348 84.7575C197.348 84.664 197.353 84.5705 197.362 84.4777C197.511 83.0668 198.774 82.0431 200.185 82.191L204.735 82.6685C205.459 82.7442 206.1 83.1665 206.457 83.8008C206.646 84.1384 206.793 84.5441 206.899 85.0184C207.16 86.1828 207.112 87.2436 206.759 88.1979C207.505 89.0189 207.96 89.974 208.123 91.0609C208.286 92.1432 208.184 93.0724 207.815 93.8458C208.36 94.7667 208.679 95.4652 208.775 95.9477C208.79 96.0251 208.806 96.1111 208.821 96.2058C209.051 97.5681 208.568 98.9533 207.541 99.8776L205.744 101.496C205.663 101.569 205.576 101.638 205.488 101.702C204.142 102.67 202.267 102.363 201.295 101.01C201.223 100.895 201.158 100.777 201.099 100.655C200.15 98.7193 200.895 96.3938 202.759 95.36H202.26C201.66 95.36 201.07 95.2135 200.54 94.9334C198.745 93.9836 198.059 91.7579 199.009 89.9618ZM200.54 83.0855C200.607 83.0845 200.662 83.1385 200.664 83.2061C200.664 83.2737 200.61 83.3291 200.543 83.33C199.642 83.3429 199.242 83.8816 199.319 85.0099C199.397 86.1433 199.798 86.6519 200.534 86.6006C200.602 86.5959 200.659 86.6467 200.664 86.714C200.669 86.7814 200.618 86.8399 200.551 86.8446C199.656 86.907 199.161 86.2795 199.076 85.0267C198.99 83.7686 199.485 83.1003 200.54 83.0855ZM201.709 90.0603C201.776 90.0546 201.835 90.1046 201.841 90.1719C201.846 90.2392 201.797 90.2985 201.729 90.304C200.83 90.3796 200.47 90.9449 200.625 92.0651C200.781 93.1903 201.218 93.6697 201.949 93.5673C202.016 93.5578 202.078 93.6044 202.086 93.6714C202.095 93.7383 202.048 93.8001 201.981 93.8095C201.094 93.9341 200.556 93.3426 200.384 92.0987C200.209 90.8499 200.657 90.1488 201.709 90.0603ZM203.423 97.193C203.49 97.1791 203.553 97.2216 203.568 97.2878C203.581 97.3539 203.538 97.4186 203.473 97.4324C202.591 97.6168 202.301 98.2218 202.593 99.3148C202.885 100.412 203.375 100.835 204.088 100.645C204.153 100.627 204.22 100.666 204.238 100.731C204.256 100.796 204.217 100.863 204.151 100.881C203.286 101.113 202.679 100.591 202.356 99.3776C202.03 98.1593 202.391 97.4086 203.423 97.193Z" fill="#263E4B"/>
<path fill-rule="evenodd" clip-rule="evenodd" d="M97.495 119.079L101.454 160.384H103.492L101.551 118.681C101.5 117.587 100.571 116.741 99.4752 116.792C99.4416 116.794 99.4082 116.796 99.3748 116.799C98.2261 116.911 97.385 117.931 97.495 119.079Z" fill="white"/>
<path d="M97.3735 119.014L101.343 160.429H103.62L101.673 118.599C101.619 117.437 100.633 116.539 99.4698 116.593C99.4342 116.595 99.3987 116.597 99.3631 116.601C98.1473 116.719 97.2571 117.799 97.3735 119.014ZM101.565 160.185L97.6171 118.991C97.5134 117.91 98.3053 116.949 99.3869 116.844C99.4182 116.841 99.4497 116.839 99.4812 116.837C100.509 116.789 101.381 117.583 101.429 118.61L103.364 160.185H101.565Z" fill="#263E4B"/>
<path d="M100.455 161.577C100.429 161.639 100.358 161.669 100.296 161.644C100.233 161.618 100.203 161.547 100.229 161.484C101.842 157.543 102.781 154.789 103.045 153.229C103.057 153.163 103.12 153.118 103.186 153.129C103.253 153.14 103.298 153.203 103.287 153.27C103.018 154.853 102.075 157.619 100.455 161.577ZM102.956 147.787C102.977 147.85 102.943 147.92 102.879 147.941C102.815 147.963 102.745 147.928 102.724 147.864C102.006 145.725 100.555 143.9 98.3681 142.387C98.3126 142.349 98.2988 142.273 98.3371 142.217C98.3756 142.162 98.4517 142.148 98.5073 142.186C100.736 143.728 102.22 145.595 102.956 147.787ZM101.201 156.45C101.174 156.511 101.101 156.538 101.04 156.511C100.978 156.483 100.951 156.41 100.979 156.349C101.197 155.868 101.343 155.476 101.417 155.175C102.432 151.041 101.803 148.019 100.006 145.872C99.9623 145.82 99.9692 145.743 100.021 145.699C100.073 145.656 100.15 145.663 100.193 145.715C102.041 147.924 102.687 151.025 101.654 155.233C101.576 155.551 101.425 155.956 101.201 156.45ZM98.319 117.06C98.3105 116.993 98.3578 116.932 98.4248 116.923C98.4918 116.915 98.5531 116.962 98.5616 117.029C99.6212 125.328 103.598 129.718 110.509 130.233C110.576 130.238 110.626 130.297 110.621 130.364C110.616 130.431 110.558 130.482 110.49 130.477C103.455 129.952 99.3925 125.468 98.319 117.06ZM100.109 116.934C100.103 116.867 100.152 116.807 100.22 116.801C100.287 116.795 100.347 116.844 100.353 116.911C101.048 124.219 104.354 128.029 110.295 128.466C110.362 128.471 110.413 128.529 110.408 128.597C110.403 128.664 110.344 128.715 110.277 128.71C104.208 128.263 100.815 124.353 100.109 116.934Z" fill="#263E4B"/>
<path fill-rule="evenodd" clip-rule="evenodd" d="M165.204 52.1024C164.889 52.1024 164.633 51.8104 164.633 51.4502C164.633 51.0898 164.889 50.7978 165.204 50.7978C165.518 50.7978 165.774 51.0898 165.774 51.4502C165.774 51.8104 165.518 52.1024 165.204 52.1024ZM170.258 52.1024C169.943 52.1024 169.688 51.8104 169.688 51.4502C169.688 51.0898 169.943 50.7978 170.258 50.7978C170.573 50.7978 170.829 51.0898 170.829 51.4502C170.829 51.8104 170.573 52.1024 170.258 52.1024ZM164.074 50.8769C164.03 50.9284 163.953 50.9348 163.903 50.8911C163.851 50.8474 163.844 50.7704 163.888 50.7188C163.908 50.6958 163.942 50.6575 163.991 50.6091C164.072 50.529 164.162 50.4488 164.261 50.3739C164.552 50.1556 164.855 50.0232 165.161 50.0232C165.605 50.0232 165.846 50.1291 166.091 50.3977C166.13 50.44 166.169 50.4863 166.221 50.5498C166.236 50.5684 166.329 50.6847 166.358 50.7205C166.401 50.773 166.392 50.8501 166.34 50.8927C166.288 50.9353 166.211 50.9274 166.169 50.8751C166.14 50.8383 166.045 50.7219 166.03 50.7039C165.982 50.6438 165.946 50.6006 165.911 50.5624C165.713 50.3449 165.536 50.2678 165.161 50.2678C164.918 50.2678 164.661 50.3801 164.41 50.5694C164.318 50.6371 164.237 50.71 164.164 50.7828C164.12 50.8259 164.089 50.859 164.074 50.8769ZM169.295 50.8735C169.252 50.9266 169.176 50.9357 169.123 50.894C169.07 50.8522 169.06 50.7753 169.102 50.7222C169.12 50.6992 169.153 50.6609 169.198 50.6124C169.273 50.5321 169.358 50.4518 169.451 50.3767C169.722 50.1567 170.005 50.0232 170.294 50.0232C170.71 50.0232 170.94 50.1307 171.168 50.4009C171.204 50.4434 171.24 50.4897 171.287 50.5532C171.302 50.5718 171.388 50.6881 171.416 50.724C171.457 50.7779 171.445 50.8546 171.391 50.8953C171.338 50.9361 171.261 50.9255 171.22 50.8716C171.192 50.8349 171.106 50.7183 171.093 50.7003C171.047 50.6404 171.013 50.5972 170.98 50.5589C170.798 50.3433 170.638 50.2678 170.294 50.2678C170.072 50.2678 169.836 50.3788 169.604 50.5666C169.521 50.6342 169.445 50.7069 169.378 50.7795C169.337 50.8227 169.309 50.8556 169.295 50.8735ZM168.437 53.1217H169.399L168.323 50.3529C168.298 50.29 168.329 50.2191 168.391 50.1945C168.455 50.1701 168.525 50.2012 168.549 50.2643L169.691 53.1997C169.723 53.2799 169.663 53.3664 169.578 53.3664H168.437C168.368 53.3664 168.315 53.3117 168.315 53.2441C168.315 53.1764 168.368 53.1217 168.437 53.1217ZM167.842 54.8196C167.782 54.8516 167.708 54.8291 167.676 54.7696C167.645 54.71 167.667 54.6359 167.726 54.604C168.17 54.3666 168.595 54.3666 168.99 54.6075C169.047 54.6427 169.065 54.718 169.03 54.7757C168.995 54.8333 168.92 54.8514 168.861 54.8161C168.545 54.622 168.21 54.622 167.842 54.8196Z" fill="#263E4B"/>
<path fill-rule="evenodd" clip-rule="evenodd" d="M77.894 126.461L84.4158 146.602L116.617 142.28V118.715L84.8056 125.078L84.4158 127.847L82.3295 125.574L77.894 126.461Z" fill="white"/>
<path d="M82.4195 125.416C82.3906 125.385 82.3472 125.371 82.3053 125.379L77.8699 126.266C77.7982 126.281 77.755 126.354 77.7775 126.424L84.2992 146.565C84.3175 146.621 84.3734 146.656 84.4319 146.648L116.633 142.326C116.694 142.318 116.739 142.266 116.739 142.205V118.64C116.739 118.563 116.668 118.505 116.593 118.52L84.7815 124.884C84.7305 124.894 84.6915 124.935 84.6843 124.987L84.3307 127.499L82.4195 125.416ZM82.2858 125.632L84.3255 127.855C84.3954 127.931 84.5222 127.892 84.5368 127.789L84.9144 125.106L116.494 118.789V142.098L84.5006 146.392L78.0525 126.479L82.2858 125.632Z" fill="#263E4B"/>
<path fill-rule="evenodd" clip-rule="evenodd" d="M70.7202 182.525H81.5626C85.8334 171.408 89.7544 164.467 93.3259 161.701C93.5368 161.538 92.2788 159.727 89.5517 156.269C91.3195 157.667 92.5423 158.564 93.2202 158.96C93.5395 159.146 93.5667 156.483 93.3017 150.969L96.2209 159.808C97.3323 159.249 98.1798 158.858 98.7637 158.634C106.97 155.481 113.709 163.444 118.981 182.525H229.198" fill="white"/>
<path d="M93.1583 159.027C93.2746 159.094 93.3796 159.032 93.4368 158.909C93.474 158.83 93.5025 158.709 93.5258 158.543C93.57 158.227 93.5953 157.735 93.6021 157.064C93.6142 155.878 93.5685 154.128 93.465 151.815L96.1045 159.807C96.128 159.878 96.2089 159.911 96.2755 159.878C97.3836 159.321 98.228 158.931 98.8073 158.709C106.917 155.593 113.608 163.499 118.863 182.518C118.878 182.572 118.926 182.608 118.981 182.608H229.198C229.265 182.608 229.32 182.554 229.32 182.486C229.32 182.419 229.265 182.363 229.198 182.363H119.074C113.789 163.286 107.01 155.296 98.7196 158.481C98.1536 158.698 97.3451 159.07 96.2923 159.596L93.4175 150.892C93.373 150.757 93.1725 150.794 93.1793 150.936C93.3117 153.691 93.3711 155.733 93.3575 157.062C93.3507 157.723 93.3259 158.206 93.2835 158.51C93.2661 158.634 93.2459 158.726 93.225 158.782C92.5427 158.374 91.342 157.491 89.6273 156.134C89.5136 156.045 89.3656 156.192 89.4554 156.306C90.8175 158.033 91.8125 159.349 92.4398 160.252C92.7517 160.701 92.9721 161.047 93.1003 161.288C93.1619 161.405 93.201 161.495 93.2178 161.556C93.2211 161.568 93.2232 161.578 93.2245 161.586C89.6454 164.376 85.7346 171.299 81.4784 182.363H70.7199C70.6524 182.363 70.5977 182.419 70.5977 182.486C70.5977 182.554 70.6524 182.608 70.7199 182.608H81.5623C81.613 182.608 81.6584 182.577 81.6765 182.53C85.9396 171.433 89.8521 164.506 93.4004 161.759C93.601 161.604 93.3554 161.141 92.6406 160.112C92.1104 159.349 91.321 158.295 90.2721 156.951C91.6203 157.998 92.5815 158.69 93.1583 159.027Z" fill="#263E4B"/>
<path d="M166.464 38.7706H161.832C159.751 38.7706 158.062 40.4473 158.041 42.5237L155.292 46.488C155.236 46.5692 155.294 46.6801 155.392 46.6801H173.98C174.088 46.6801 174.142 46.5504 174.068 46.4729L170.09 42.3494C170.064 40.3683 168.45 38.7706 166.464 38.7706ZM158.264 42.632C158.278 42.6115 158.286 42.5872 158.286 42.5623C158.286 40.6032 159.874 39.0152 161.832 39.0152H166.464C168.332 39.0152 169.847 40.5302 169.847 42.3992C169.847 42.4308 169.858 42.4613 169.881 42.4841L173.692 46.4354H155.626L158.264 42.632Z" fill="#263E4B"/>
<path fill-rule="evenodd" clip-rule="evenodd" d="M169.919 42.4807L158.112 42.6437L157.296 43.8669H171.237L169.919 42.4807Z" fill="#24A9E2"/>
<path d="M169.999 42.2769L158.191 42.4399C158.151 42.4406 158.114 42.461 158.091 42.4943L157.276 43.7176C157.222 43.7989 157.28 43.9077 157.378 43.9077H171.318C171.426 43.9077 171.481 43.779 171.406 43.7011L170.089 42.3148C170.066 42.2902 170.033 42.2764 169.999 42.2769ZM171.033 43.663H157.606L158.259 42.6836L169.948 42.5222L171.033 43.663Z" fill="#24A9E2"/>
<path fill-rule="evenodd" clip-rule="evenodd" d="M136.834 179.306L135.448 185.993H140.829H161.698C160.495 183.452 159.082 181.686 157.459 180.692C155.837 179.7 152.875 179.237 148.573 179.306L150.774 167.891L137.568 167.973L137.405 176.533L136.834 179.306Z" fill="white"/>
<path fill-rule="evenodd" clip-rule="evenodd" d="M172.296 178.328V186.074L175.557 185.993H196.427C195.223 183.452 193.81 181.686 192.187 180.692C190.565 179.7 187.603 179.237 183.302 179.306L185.34 168.074L171.073 167.973L172.133 176.533L172.296 178.328Z" fill="white"/>
<path fill-rule="evenodd" clip-rule="evenodd" d="M137.405 176.616C138.653 176.817 139.631 177.605 140.34 178.98C141.048 180.355 141.428 182.202 141.481 184.525L135.774 184.444" fill="#24A9E2"/>
<path fill-rule="evenodd" clip-rule="evenodd" d="M172.296 176.616C174.524 177.144 175.991 178.095 176.699 179.469C177.406 180.844 177.732 182.53 177.677 184.525L172.296 184.444V176.616Z" fill="#24A9E2"/>
<path d="M141.46 167.908L142.368 161.652H140.421V161.408H142.403L142.889 158.065H141.155V157.82H150.612V158.065H148.716L148.096 161.408H149.878V161.652H148.051L146.897 167.873L150.923 167.849L149.12 177.201L149.742 175.496C149.768 175.424 149.801 175.354 149.84 175.289C150.193 174.688 150.968 174.486 151.571 174.839C151.672 174.898 151.764 174.973 151.842 175.061C152.25 175.523 152.208 176.227 151.746 176.636L148.848 179.202C149.393 179.065 150.733 178.721 152.7 178.209C152.766 178.193 152.832 178.232 152.849 178.297C152.866 178.363 152.827 178.429 152.762 178.446C151.328 178.819 150.295 179.086 149.612 179.26C153.376 179.276 156.011 179.744 157.523 180.669C159.169 181.678 160.596 183.461 161.809 186.022L161.892 186.197H135.298L136.715 179.363L137.283 176.602L137.448 167.932L141.46 167.908ZM141.708 167.906L144.073 167.891L145.028 161.652H142.615L141.708 167.906ZM144.32 167.89L146.648 167.875L147.802 161.652H145.276L144.32 167.89ZM148.677 179.508C148.667 179.511 148.656 179.511 148.645 179.511L145.887 179.591C145.819 179.594 145.763 179.54 145.761 179.474C145.759 179.405 145.812 179.35 145.88 179.347L148.343 179.275L145.361 176.636C144.899 176.227 144.856 175.523 145.265 175.061C145.343 174.973 145.435 174.898 145.536 174.839C146.138 174.486 146.914 174.688 147.267 175.289C147.306 175.354 147.338 175.424 147.364 175.496L148.553 178.754L148.592 178.648L150.626 168.095L137.688 168.175L137.529 176.523C140.068 177.278 141.523 179.887 141.602 184.322H160.618C159.655 182.751 158.58 181.603 157.395 180.878C155.811 179.909 152.902 179.449 148.677 179.508ZM148.828 178.713L148.787 178.928L151.584 176.453C151.944 176.134 151.978 175.583 151.658 175.223C151.597 175.155 151.526 175.096 151.447 175.049C150.961 174.764 150.336 174.927 150.051 175.412C150.02 175.466 149.993 175.522 149.972 175.579L148.828 178.713ZM160.765 184.566H135.886L135.599 185.952H161.504C161.266 185.46 161.019 184.998 160.765 184.566ZM135.937 184.322H141.357C141.28 180.01 139.889 177.502 137.498 176.769L136.954 179.413L135.937 184.322ZM147.135 175.579C147.114 175.522 147.087 175.466 147.056 175.412C146.771 174.927 146.146 174.764 145.66 175.049C145.581 175.096 145.509 175.155 145.448 175.223C145.129 175.583 145.162 176.134 145.523 176.453L148.375 178.977L147.135 175.579ZM148.467 158.065H145.825L145.313 161.408H147.847L148.467 158.065ZM145.578 158.065H143.136L142.651 161.408H145.066L145.578 158.065Z" fill="#263E4B"/>
<path fill-rule="evenodd" clip-rule="evenodd" d="M136.345 80.8863H133.655L136.59 76.2386" fill="#24A9E2"/>
<path d="M173.94 167.867L173.036 161.652H171.481V161.408H173.002L172.516 158.065H170.992V157.82H180.856V158.065H178.749L179.087 161.408H180.937V161.652H179.111L179.741 167.899L185.485 167.932L183.624 178.705L184.797 175.496C184.823 175.424 184.855 175.354 184.895 175.289C185.247 174.688 186.023 174.486 186.624 174.839C186.727 174.898 186.818 174.973 186.895 175.061C187.304 175.523 187.262 176.227 186.8 176.636L184.032 179.086C184.722 178.912 185.881 178.612 187.428 178.209C187.493 178.193 187.56 178.232 187.578 178.297C187.595 178.363 187.555 178.429 187.49 178.446C186.057 178.819 185.023 179.086 184.342 179.259C188.149 179.27 190.81 179.737 192.333 180.669C193.978 181.678 195.406 183.461 196.619 186.022L196.701 186.197H172.175L172.174 186.076L172.094 176.631L170.933 167.849L173.94 167.867ZM174.186 167.868L176.641 167.881L176.09 161.652H173.284L174.186 167.868ZM176.887 167.883L179.495 167.898L178.865 161.652H176.335L176.887 167.883ZM172.321 176.496C175.864 177.209 177.691 179.83 177.797 184.322H195.427C194.465 182.751 193.391 181.603 192.205 180.878C190.625 179.912 187.733 179.452 183.533 179.508C183.517 179.511 183.5 179.511 183.484 179.508C183.455 179.509 183.425 179.509 183.396 179.509C183.39 179.511 183.381 179.511 183.373 179.511L180.615 179.591C180.548 179.594 180.491 179.54 180.489 179.474C180.487 179.405 180.54 179.35 180.608 179.347L183.072 179.275L180.09 176.636C179.627 176.227 179.584 175.523 179.993 175.061C180.072 174.973 180.163 174.898 180.264 174.839C180.867 174.486 181.642 174.688 181.996 175.289C182.033 175.354 182.066 175.424 182.092 175.496L183.341 178.915L185.195 168.175L171.214 168.095L172.321 176.496ZM172.339 176.748L172.404 184.322H177.551C177.448 179.967 175.714 177.455 172.339 176.748ZM195.574 184.566H172.405L172.417 185.952H196.314C196.076 185.46 195.828 184.998 195.574 184.566ZM181.864 175.579C181.842 175.522 181.815 175.466 181.784 175.412C181.498 174.927 180.874 174.764 180.388 175.049C180.308 175.096 180.238 175.155 180.176 175.223C179.856 175.583 179.891 176.134 180.251 176.453L183.103 178.977L181.864 175.579ZM185.027 175.579L183.786 178.977L186.637 176.453C186.999 176.134 187.032 175.583 186.712 175.223C186.652 175.155 186.58 175.096 186.5 175.049C186.015 174.764 185.39 174.927 185.105 175.412C185.074 175.466 185.048 175.522 185.027 175.579ZM178.503 158.065H176.017L176.314 161.408H178.841L178.503 158.065ZM175.771 158.065H172.764L173.248 161.408H176.067L175.771 158.065Z" fill="#263E4B"/>
<path d="M94.387 135.183L94.6276 136.701L93.2297 136.922L93.4102 138.061L91.6131 138.345L91.4327 137.207L86.5004 137.987L86.2598 136.469L90.5049 131.354L92.3022 131.07L92.9892 135.404L94.387 135.183ZM88.1967 136.163L91.192 135.689L90.7899 133.152L88.1967 136.163ZM99.3867 137.217C96.6111 137.657 95.0905 136.587 94.7217 134.26C94.3544 131.943 95.4712 130.466 98.2469 130.027C101.012 129.589 102.543 130.657 102.909 132.964C103.276 135.281 102.152 136.78 99.3867 137.217ZM99.1477 135.709C100.725 135.46 101.319 134.557 101.112 133.249C100.906 131.95 100.063 131.285 98.4859 131.535C96.9085 131.785 96.3114 132.667 96.5188 133.975C96.7278 135.294 97.5701 135.959 99.1477 135.709ZM111.76 132.434L112 133.952L110.602 134.173L110.783 135.311L108.986 135.596L108.805 134.458L103.873 135.238L103.632 133.72L107.878 128.605L109.675 128.321L110.362 132.655L111.76 132.434ZM105.569 133.413L108.565 132.939L108.163 130.403L105.569 133.413Z" fill="#24A9E2"/>
<path d="M94.5668 134.963L94.8457 136.722L93.448 136.944L93.6284 138.082L91.5897 138.405L91.4093 137.266L86.477 138.047L86.2085 136.354L90.5184 131.161L92.4819 130.85L93.169 135.184L94.5668 134.963ZM92.9657 135.464L92.2786 131.13L90.6478 131.388L86.4674 136.425L86.6804 137.767L91.6126 136.987L91.7929 138.125L93.3485 137.879L93.1682 136.741L94.5659 136.519L94.3636 135.243L92.9657 135.464ZM87.9648 136.255L90.9475 132.792L91.4101 135.71L87.9648 136.255ZM91.1303 135.507L90.7886 133.352L88.585 135.91L91.1303 135.507ZM99.484 137.258C96.6937 137.699 95.066 136.64 94.6791 134.199C94.294 131.769 95.5144 130.268 98.306 129.826C101.087 129.386 102.724 130.445 103.108 132.865C103.493 135.296 102.264 136.818 99.484 137.258ZM99.4458 137.017C102.098 136.597 103.23 135.196 102.866 132.903C102.505 130.623 100.997 129.648 98.3441 130.067C95.6807 130.489 94.5576 131.87 94.9207 134.161C95.2856 136.462 96.7835 137.438 99.4458 137.017ZM99.245 135.75C97.6509 136.002 96.7034 135.347 96.4763 133.915C96.2508 132.493 96.9501 131.587 98.545 131.334C100.136 131.082 101.086 131.734 101.311 133.15C101.537 134.576 100.835 135.498 99.245 135.75ZM99.2067 135.509C100.666 135.278 101.274 134.479 101.069 133.188C100.866 131.909 100.044 131.344 98.5832 131.575C97.1189 131.807 96.5142 132.591 96.7178 133.876C96.9234 135.173 97.7437 135.74 99.2067 135.509ZM111.939 132.214L112.218 133.973L110.821 134.194L111.001 135.333L108.962 135.656L108.782 134.517L103.85 135.298L103.581 133.604L107.891 128.412L109.855 128.101L110.542 132.435L111.939 132.214ZM110.338 132.715L109.651 128.381L108.02 128.639L103.84 133.675L104.053 135.018L108.985 134.238L109.166 135.376L110.721 135.13L110.541 133.991L111.939 133.77L111.736 132.494L110.338 132.715ZM105.337 133.506L108.32 130.043L108.783 132.961L105.337 133.506ZM108.503 132.758L108.161 130.602L105.958 133.161L108.503 132.758Z" fill="#24A9E2"/>
<path d="M136.558 76.1075C136.572 76.0519 136.585 76.0001 136.595 75.9524L136.729 73.1325C136.951 68.4581 140.804 64.782 145.483 64.782H154.687V65.0267H145.483C140.935 65.0267 137.189 68.6001 136.973 73.1441L136.935 73.964C137.367 72.3058 138.2 70.8224 139.437 69.5485C141.3 67.6284 143.607 68.5855 146.308 72.3347C146.348 72.3894 146.335 72.4659 146.281 72.5054C146.226 72.545 146.149 72.5324 146.11 72.4777C143.485 68.8339 141.336 67.9427 139.612 69.7189C137.99 71.3908 137.079 73.4295 136.874 75.76C136.869 75.8248 136.857 75.8994 136.839 75.9843L136.467 83.8277L136.223 83.8161L136.36 80.9272H133.736C133.64 80.9272 133.581 80.821 133.633 80.7396L136.558 76.1075ZM136.371 80.6825L136.567 76.5505L133.958 80.6825H136.371Z" fill="#24A9E2"/>
<path d="M172.648 87.0553C172.581 87.0527 172.528 86.9958 172.531 86.9284C172.532 86.8608 172.589 86.8082 172.658 86.8108C173.558 86.8451 173.987 86.3281 173.967 85.1972C173.949 84.0613 173.576 83.5324 172.839 83.5452C172.77 83.5465 172.715 83.4926 172.713 83.4252C172.713 83.3576 172.767 83.3019 172.834 83.3007C173.731 83.2851 174.192 83.9377 174.212 85.1933C174.233 86.4542 173.701 87.0955 172.648 87.0553ZM172.387 95.6589C172.32 95.6529 172.27 95.5934 172.276 95.5262C172.283 95.4589 172.342 95.4092 172.41 95.4154C173.307 95.4968 173.762 95.0028 173.803 93.8725C173.843 92.7373 173.498 92.1894 172.761 92.1637C172.694 92.1614 172.64 92.1047 172.643 92.0373C172.645 91.9697 172.702 91.9169 172.769 91.9194C173.666 91.9506 174.093 92.6263 174.047 93.8813C174.001 95.1415 173.437 95.7542 172.387 95.6589ZM167.043 105.179C166.981 105.152 166.951 105.08 166.979 105.018C167.007 104.956 167.079 104.928 167.141 104.955C167.97 105.319 168.525 105.08 168.861 104.212C169.198 103.337 169.02 102.797 168.328 102.531C168.264 102.507 168.233 102.436 168.257 102.373C168.282 102.31 168.352 102.279 168.416 102.303C169.247 102.622 169.472 103.308 169.089 104.3C168.704 105.297 168.001 105.6 167.043 105.179ZM158.238 72.6193L158.474 72.6823C158.028 74.3556 157.097 75.3431 155.69 75.6246L155.642 75.3848C156.951 75.1227 157.814 74.2076 158.238 72.6193Z" fill="#263E4B"/>
<path d="M144.542 75.8624L144.868 77.0855C144.886 77.1508 144.953 77.1896 145.018 77.1722C145.083 77.1547 145.122 77.0878 145.105 77.0225L144.779 75.7994C144.761 75.7341 144.694 75.6953 144.629 75.7127C144.564 75.7302 144.525 75.7971 144.542 75.8624Z" fill="#263E4B"/>
<path d="M144.633 75.9501L145.693 76.1948C145.759 76.2099 145.824 76.1689 145.839 76.1031C145.855 76.0372 145.813 75.9716 145.748 75.9564L144.688 75.7118C144.622 75.6966 144.557 75.7377 144.541 75.8035C144.526 75.8693 144.567 75.9349 144.633 75.9501Z" fill="#263E4B"/>
<path d="M190.65 76.7244C189.827 75.7298 188.394 75.6248 187.212 76.4023C186.75 76.7051 186.416 77.1367 186.258 77.6296C185.86 78.8721 187.422 82.0468 190.945 87.2338C190.983 87.2897 191.059 87.3042 191.115 87.2662C191.17 87.2282 191.185 87.1522 191.148 87.0963C187.681 81.9937 186.129 78.8364 186.491 77.7042C186.631 77.2655 186.931 76.8793 187.345 76.6066C188.43 75.8937 189.723 75.9885 190.463 76.8806C190.505 76.9325 190.583 76.9397 190.634 76.8965C190.686 76.8535 190.694 76.7763 190.65 76.7244Z" fill="#263E4B"/>
</svg>
