<svg width="60" height="60" viewBox="0 0 60 60" fill="none" xmlns="http://www.w3.org/2000/svg">
<path d="M10.1412 42.8072L10.141 42.8074C9.97945 42.9582 9.875 43.1928 9.875 43.4577V50.1249H18.25V40.6008C18.25 39.9384 17.9107 39.3456 17.3362 39.0078L10.1412 42.8072ZM10.1412 42.8072C11.5909 41.4523 13.394 40.1654 15.5052 38.986M10.1412 42.8072L15.5052 38.986M39.7048 7.9442L39.7048 7.94429C40.6536 7.93068 41.4747 8.62821 41.5617 9.59146L39.7048 7.9442ZM39.7048 7.9442L39.6956 7.9445M39.7048 7.9442L39.6956 7.9445M39.6956 7.9445C36.1774 8.05954 32.9254 8.66006 30.0338 9.73715L30.0337 9.7372M39.6956 7.9445L30.0337 9.7372M30.0337 9.7372C29.3816 9.98028 28.9218 10.54 28.8106 11.2267L28.8105 11.2272M30.0337 9.7372L28.8105 11.2272M28.8105 11.2272C28.7006 11.9104 28.9585 12.5844 29.4995 13.0183L30.6865 13.9725C29.4152 15.7145 25.4033 20.3666 17.3092 22.9426C16.2802 23.2695 15.1733 23.5073 14.0753 23.7426C14.0753 23.7426 14.0753 23.7426 14.0753 23.7427L14.0263 23.7531C12.5188 24.076 10.9602 24.4098 9.81897 25.008C9.2331 25.3152 8.71911 25.7102 8.37581 26.244C8.02627 26.7875 7.88002 27.4342 7.96474 28.1887M28.8105 11.2272L40.3221 20.4653M40.3221 20.4653L40.322 20.4653C39.6943 20.7265 38.9697 20.6286 38.4366 20.2C38.4365 20.1999 38.4364 20.1998 38.4363 20.1997L37.4867 19.439C36.1356 20.8775 32.6551 24.3284 27.3722 27.7953C23.6525 30.2375 18.6507 31.4154 14.7134 31.4154C12.8316 31.4154 11.141 31.1467 9.9329 30.5781C8.50279 29.9051 8.04848 28.9424 7.96474 28.1887M40.3221 20.4653C40.9519 20.203 41.3783 19.6369 41.4505 18.9583M40.3221 20.4653L41.5617 9.59154C41.8336 12.5821 41.7957 15.7335 41.4505 18.9583M7.96474 28.1887L8.46169 28.1335L7.96482 28.1894C7.96479 28.1892 7.96477 28.1889 7.96474 28.1887ZM30.4982 28.857C31.6787 28.197 33.0863 28.214 34.254 28.8994L30.4982 28.857ZM30.4982 28.857C28.2637 30.1053 26.3301 31.4826 24.7559 32.9542C24.1913 33.4813 23.875 34.2354 23.875 35.0201V50.156C23.875 51.2076 24.7297 52.0623 25.7812 52.0623H34.2188C35.2703 52.0623 36.125 51.2076 36.125 50.156V32.1632C36.125 30.8084 35.4236 29.5859 34.254 28.8994L30.4982 28.857ZM15.5052 38.986C15.7891 38.8278 16.0961 38.7502 16.4007 38.7502M15.5052 38.986L16.4007 38.7502M16.4007 38.7502C16.7199 38.7502 17.0415 38.8351 17.3361 39.0078L16.4007 38.7502ZM41.4505 18.9583L40.9534 18.905L41.4506 18.9578C41.4506 18.958 41.4506 18.9581 41.4505 18.9583ZM42.016 24.9949L42.0162 24.9947C43.4659 23.6398 45.269 22.3529 47.3802 21.1735C47.6641 21.0153 47.9711 20.9377 48.2757 20.9377C48.5948 20.9377 48.9163 21.0225 49.2108 21.1951C49.7855 21.5328 50.125 22.1258 50.125 22.7883V50.1249H41.75V25.6452C41.75 25.3803 41.8545 25.1457 42.016 24.9949ZM26.0787 34.3697C27.5284 33.0148 29.3315 31.7279 31.4427 30.5485C31.7266 30.3903 32.0336 30.3127 32.3382 30.3127C32.6573 30.3127 32.9788 30.3975 33.2733 30.5701C33.848 30.9078 34.1875 31.5008 34.1875 32.1633V50.1249H25.8125V35.0202C25.8125 34.7553 25.917 34.5207 26.0785 34.3699L26.0787 34.3697ZM18.3164 37.3369L18.3164 37.3369C17.1484 36.6516 15.7408 36.6344 14.5607 37.2945C12.3264 38.5427 10.3928 39.9199 8.8187 41.3914C8.2539 41.9185 7.9375 42.6728 7.9375 43.4576V50.156C7.9375 51.2076 8.7922 52.0623 9.84375 52.0623H18.2812C19.3328 52.0623 20.1875 51.2076 20.1875 50.156V40.6007C20.1875 39.2459 19.4861 38.0233 18.3164 37.3369ZM36.6418 17.4877L36.6411 17.4884C36.6415 17.488 36.6269 17.5051 36.5971 17.5393C36.5677 17.573 36.5242 17.6224 36.4667 17.6865C36.3517 17.8148 36.1808 18.0018 35.9554 18.2394C35.5046 18.7146 34.8359 19.3918 33.9601 20.2045C32.208 21.8304 29.629 23.9971 26.309 26.1757L26.3088 26.1758C23.8707 27.777 20.7235 28.7998 17.7886 29.236C14.8318 29.6755 12.1998 29.5039 10.758 28.8253L10.7579 28.8252C10.1103 28.5206 9.91703 28.2125 9.89084 27.9747L9.8907 27.9733C9.85542 27.6605 9.91974 27.4378 10.0497 27.2526C10.1896 27.0533 10.4345 26.857 10.8284 26.6647C11.63 26.2735 12.8564 25.9855 14.4813 25.6371C14.4813 25.6371 14.4814 25.6371 14.4814 25.6371L14.49 25.6353C15.5989 25.3977 16.7731 25.1462 17.8966 24.7894L17.8969 24.7893C28.6752 21.3589 32.63 14.603 32.8291 14.2522L32.8295 14.2514C33.0626 13.839 32.9641 13.3167 32.5925 13.0189C32.5924 13.0188 32.5924 13.0188 32.5923 13.0187L30.7501 11.5384C33.3904 10.5605 36.3802 10.0023 39.6425 9.8848C39.8869 12.6622 39.8532 15.5938 39.5401 18.6017L37.9876 17.3577C37.9874 17.3575 37.9872 17.3574 37.9871 17.3573C37.987 17.3572 37.987 17.3572 37.987 17.3572C37.5762 17.0275 36.9796 17.0883 36.6418 17.4877ZM50.1915 19.5244C49.0242 18.839 47.6155 18.822 46.4354 19.4821L41.0348 23.9445L40.6937 23.5789C40.6936 23.579 40.6935 23.5791 40.6934 23.5792C40.1288 24.1063 39.8125 24.8605 39.8125 25.6451V50.156C39.8125 51.2076 40.6672 52.0623 41.7188 52.0623H50.1562C51.2078 52.0623 52.0625 51.2076 52.0625 50.156V22.7883C52.0625 21.4335 51.3611 20.2109 50.1915 19.5244Z" fill="#24A9E2" stroke="#24A9E2"/>
</svg>
